# xmcd
#
# Track frame offsets:
#	150
#	15575
#	31387
#	50475
#	59445
#	75342
#	89320
#	102772
#	118405
#	130802
#	143990
#	158307
#	171577
#	185330
#	201847
#	215652
#	234667
#	249227
#	264372
#	276412
#	288730
#	301867
#	315082
#	325790
#	339130
#	353207
#	369735
#
# Disc length: 5116 seconds
#
# Revision: 0
# Processed by: cddbd v1.5.2PL0 Copyright (c) Steve Scherf et al.
# Submitted via: audiograbber 1.83.01
#
DISCID=8813fa1b
DTITLE=Merle Haggard - Studio Recordings 1969-1976 [CD 6)
DYEAR=2007
DGENRE=Country
TTITLE0=Where Have All The Hobos Gone
TTITLE1=I Won't Give Up My Train
TTITLE2=Union Station
TTITLE3=When My Last Song Is Sung
TTITLE4=I've Got A Yearning
TTITLE5=Always Wanting You
TTITLE6=Nothin's Worse Than Losing
TTITLE7=Colorado
TTITLE8=The Roots Of My Raising
TTITLE9=Living With The Shades Pulled Down
TTITLE10=After Loving You
TTITLE11=Cotton Patch Blues
TTITLE12=Runnin' Kind
TTITLE13=Walk On The Outside
TTITLE14=Let's Stop Pretending (Dirty Old Hat Band)
TTITLE15=Right Or Wrong (unrel.)
TTITLE16=It's All In The Movies
TTITLE17=The Way It Was In '51
TTITLE18=Goodbye Lefty
TTITLE19=I Never Go Around Mirrors
TTITLE20=Am I Standing In Your Way
TTITLE21=A Working Man Can't Get Nowhere Today
TTITLE22=The Waltz You Saved For Me
TTITLE23=Cherokee Maiden
TTITLE24=What Have You Got Planned Tonight, Diana
TTITLE25=Here Comes The Freedom Train
TTITLE26=Campaign Of '76 (unrel.)
EXTD=
EXTT0=
EXTT1=
EXTT2=
EXTT3=
EXTT4=
EXTT5=
EXTT6=
EXTT7=
EXTT8=
EXTT9=
EXTT10=
EXTT11=
EXTT12=
EXTT13=
EXTT14=
EXTT15=
EXTT16=
EXTT17=
EXTT18=
EXTT19=
EXTT20=
EXTT21=
EXTT22=
EXTT23=
EXTT24=
EXTT25=
EXTT26=
PLAYORDER=
